<svg xmlns="http://www.w3.org/2000/svg" viewBox="0 0 256 256" width="128" height="128">
  <defs>
    <linearGradient id="grad" x1="0%" y1="0%" x2="100%" y2="100%">
      <stop offset="0%" style="stop-color:#f7931a;stop-opacity:1" />
      <stop offset="100%" style="stop-color:#ffcc80;stop-opacity:1" />
    </linearGradient>
  </defs>
  <circle cx="128" cy="128" r="120" fill="url(#grad)" />
  <path fill="#fff" d="M154.3 121.3c12.2-5.8 19.4-15.1 17.5-30.5-2.4-18.3-17.6-25.8-38.2-27.3V44h-16.6v18.6c-4.3 0-8.7.1-13 .2V44h-16.5v18.9c-3.5.1-7 .1-10.3.1v16.2c2.5 0 5 .1 7.6.1 2.5 0 4.9-.1 7.3-.1v45.4c-2.6.1-5.1.1-7.6.1-2.6 0-5.1 0-7.6-.1v16.1c3.4 0 6.8 0 10.3.1V212h16.5v-18.8c4.3.1 8.7.2 13 .2V212h16.6v-19.1c27.5-1.6 46.7-13.8 49.4-39.6 2-19.7-7.5-30.2-23.7-35.9zM109.5 80.7c9.2 0 39.3-2.8 42.2 14.2 3.1 17.9-30.6 17.4-42.2 17.4V80.7zm0 94.7v-37.3c12.8 0 48.4-3.4 51.3 18.7 2.8 21.3-30.5 18.6-51.3 18.6z"/>
</svg>
